<?xml version="1.0" encoding="utf-8"?>
<!-- Generator: Adobe Illustrator 23.0.1, SVG Export Plug-In . SVG Version: 6.00 Build 0)  -->
<svg version="1.1" id="Layer_1" xmlns="http://www.w3.org/2000/svg" xmlns:xlink="http://www.w3.org/1999/xlink" x="0px" y="0px"
	 viewBox="0 0 28 28" style="enable-background:new 0 0 28 28;" xml:space="preserve">
<style type="text/css">
	.st0{fill:#3F51B5;}
	.st1{fill:#FFFFFF;}
	.st2{fill:none;}
</style>
<path class="st0" d="M22,28H6c-3.3,0-6-2.7-6-6V6c0-3.3,2.7-6,6-6h16c3.3,0,6,2.7,6,6v16C28,25.3,25.3,28,22,28z"/>
<path class="st1" d="M20,6l2,4h-3l-2-4h-2l2,4h-3l-2-4h-2l2,4H9L7,6H6C4.9,6,4,6.9,4,8v12c0,1.1,0.9,2,2,2h16c1.1,0,2-0.9,2-2V6H20z
	"/>
<path class="st2" d="M4,6h24v24H4V6z"/>
</svg>
