<?xml version="1.0" encoding="utf-8"?>
<!-- Generator: Adobe Illustrator 23.0.1, SVG Export Plug-In . SVG Version: 6.00 Build 0)  -->
<svg version="1.1" id="Layer_1" xmlns="http://www.w3.org/2000/svg" xmlns:xlink="http://www.w3.org/1999/xlink" x="0px" y="0px"
	 viewBox="0 0 500 750" style="enable-background:new 0 0 500 750;" xml:space="preserve">
<style type="text/css">
	.st0{fill:#FFFFFF;}
	.st1{fill:none;}
</style>
<title>no-img</title>
<circle class="st0" cx="250" cy="372.74" r="57.33"/>
<path class="st0" d="M194.96,193l-33.05,36.12h-54.96c-19.77,0.06-35.78,16.07-35.83,35.83v214.71
	c0.06,19.77,16.07,35.78,35.83,35.83h286.95c19.77-0.06,35.78-16.07,35.83-35.83V264.96c-0.06-19.77-16.07-35.78-35.83-35.83h-57.54
	L303.32,193L194.96,193z M250,462.33c-49.48,0-89.58-40.11-89.58-89.58s40.11-89.58,89.58-89.58s89.58,40.11,89.58,89.58v0
	C339.57,422.21,299.47,462.31,250,462.33z"/>
<path class="st1" d="M35,157.74h430v430H35V157.74z"/>
<path class="st0" d="M75.7,582.27h-7.03l-13.69-22.45v22.45h-7.03v-34.13h7.03l13.71,22.5v-22.5h7.01V582.27z"/>
<path class="st0" d="M80.34,569.36c-0.04-2.32,0.46-4.63,1.45-6.73c0.91-1.9,2.37-3.5,4.18-4.57c1.93-1.11,4.12-1.67,6.34-1.62
	c3.1-0.12,6.12,1.01,8.38,3.14c2.25,2.28,3.54,5.33,3.62,8.53l0.05,1.73c0.17,3.42-1,6.78-3.26,9.36c-2.26,2.39-5.45,3.68-8.74,3.53
	c-3.29,0.15-6.48-1.13-8.75-3.52c-2.18-2.34-3.27-5.53-3.27-9.56V569.36z M87.11,569.84c-0.12,1.94,0.35,3.87,1.36,5.53
	c1.64,2.14,4.71,2.55,6.85,0.91c0.33-0.25,0.63-0.55,0.89-0.88c0.92-1.26,1.38-3.27,1.38-6.04c0.12-1.93-0.37-3.85-1.38-5.49
	c-0.88-1.28-2.34-2.01-3.89-1.95c-1.53-0.06-2.98,0.67-3.84,1.94C87.56,565.13,87.11,567.13,87.11,569.84z"/>
<path class="st0" d="M120.44,550.35c-0.03-0.94,0.34-1.85,1.02-2.51c1.61-1.31,3.93-1.31,5.54,0c1.38,1.4,1.37,3.65-0.01,5.04
	c-1.6,1.31-3.91,1.31-5.51,0C120.79,552.23,120.41,551.3,120.44,550.35z M127.63,582.27h-6.8v-25.36h6.8V582.27z"/>
<path class="st0" d="M139.56,556.91l0.21,2.84c1.77-2.19,4.47-3.42,7.29-3.3c3.27,0,5.51,1.29,6.73,3.87c1.69-2.53,4.58-4,7.62-3.87
	c2.75,0,4.8,0.8,6.14,2.4s2.02,4.01,2.02,7.23v16.2h-6.8V566.1c0.09-1.12-0.21-2.23-0.84-3.15c-0.8-0.75-1.89-1.12-2.98-1
	c-1.9-0.09-3.63,1.1-4.22,2.91l0.02,17.41h-6.77v-16.15c0.1-1.13-0.21-2.26-0.87-3.19c-0.8-0.74-1.87-1.1-2.95-0.98
	c-1.74-0.1-3.38,0.84-4.17,2.39v17.93h-6.77v-25.36H139.56z"/>
<path class="st0" d="M189.46,582.27c-0.35-0.72-0.57-1.48-0.68-2.27c-1.62,1.82-3.96,2.82-6.4,2.74c-2.26,0.08-4.46-0.69-6.18-2.16
	c-1.59-1.35-2.49-3.35-2.45-5.44c-0.12-2.44,1-4.77,2.99-6.19c1.99-1.44,4.87-2.16,8.64-2.18h3.12v-1.45
	c0.05-1.02-0.27-2.02-0.9-2.81c-0.74-0.76-1.79-1.15-2.85-1.05c-0.96-0.06-1.92,0.23-2.68,0.82c-0.65,0.56-1.01,1.39-0.97,2.25
	h-6.77c0-1.47,0.48-2.9,1.36-4.08c0.99-1.31,2.32-2.33,3.84-2.94c1.77-0.73,3.67-1.1,5.58-1.07c2.68-0.14,5.33,0.69,7.44,2.36
	c1.88,1.67,2.89,4.11,2.75,6.62v10.99c-0.09,1.87,0.25,3.74,1.01,5.46v0.4H189.46z M183.86,577.56c0.96,0.01,1.91-0.22,2.77-0.67
	c0.79-0.4,1.45-1.02,1.88-1.79v-4.36h-2.53c-3.39,0-5.2,1.17-5.41,3.52l-0.02,0.4c-0.02,0.79,0.3,1.55,0.89,2.09
	C182.1,577.32,182.97,577.61,183.86,577.56L183.86,577.56z"/>
<path class="st0" d="M199.52,569.4c0-3.89,0.93-7.02,2.78-9.4c1.77-2.34,4.56-3.66,7.49-3.56c2.49-0.13,4.9,0.93,6.49,2.86
	l0.28-2.39h6.14v24.52c0.05,2.03-0.47,4.04-1.51,5.79c-1.01,1.65-2.49,2.95-4.25,3.75c-2.02,0.9-4.21,1.34-6.42,1.29
	c-1.87,0-3.72-0.38-5.44-1.11c-1.56-0.59-2.94-1.58-4.01-2.87l3-4.13c1.52,1.81,3.77,2.85,6.14,2.84c1.53,0.09,3.04-0.42,4.2-1.44
	c1.05-1.09,1.6-2.58,1.5-4.09v-1.36c-1.55,1.76-3.82,2.73-6.16,2.65c-2.9,0.07-5.65-1.26-7.39-3.57c-1.88-2.38-2.82-5.54-2.82-9.48
	V569.4z M206.29,569.91c-0.11,1.9,0.38,3.79,1.38,5.41c0.84,1.27,2.28,2.01,3.8,1.96c1.8,0.14,3.52-0.76,4.43-2.32v-10.68
	c-0.9-1.55-2.6-2.45-4.38-2.32c-1.54-0.05-2.99,0.71-3.83,2C206.63,565.75,206.15,567.83,206.29,569.91z"/>
<path class="st0" d="M239.57,582.74c-3.37,0.13-6.64-1.1-9.08-3.42c-2.39-2.42-3.66-5.72-3.5-9.12v-0.66
	c-0.04-2.36,0.46-4.7,1.48-6.83c0.91-1.92,2.36-3.54,4.18-4.64c1.87-1.1,4.01-1.67,6.18-1.63c3.08-0.16,6.07,1.04,8.19,3.28
	c1.99,2.19,2.99,5.29,2.99,9.3v2.77h-16.15c0.15,1.53,0.86,2.94,1.98,3.98c1.15,1.02,2.65,1.56,4.18,1.5
	c2.38,0.11,4.66-0.95,6.12-2.84l3.33,3.73c-1.05,1.47-2.48,2.63-4.13,3.36C243.53,582.35,241.56,582.77,239.57,582.74z M238.8,561.9
	c-1.24-0.04-2.43,0.45-3.27,1.37c-0.92,1.11-1.48,2.47-1.61,3.91h9.42v-0.54c0.05-1.28-0.38-2.53-1.22-3.5
	C241.24,562.28,240.03,561.83,238.8,561.9z"/>
<path class="st0" d="M280.49,582.27c-0.35-0.72-0.57-1.48-0.68-2.27c-1.62,1.82-3.96,2.82-6.4,2.74c-2.26,0.08-4.46-0.69-6.18-2.16
	c-1.59-1.35-2.49-3.35-2.45-5.44c-0.12-2.44,1-4.77,2.99-6.19c1.99-1.44,4.87-2.16,8.64-2.18h3.12v-1.45
	c0.05-1.02-0.27-2.02-0.9-2.81c-0.74-0.76-1.79-1.15-2.85-1.05c-0.96-0.06-1.92,0.23-2.68,0.82c-0.65,0.56-1.01,1.39-0.97,2.25
	h-6.77c0-1.47,0.48-2.9,1.36-4.08c0.99-1.31,2.32-2.33,3.84-2.94c1.77-0.73,3.67-1.1,5.58-1.07c2.68-0.14,5.33,0.69,7.44,2.36
	c1.88,1.67,2.89,4.11,2.75,6.62v10.99c-0.09,1.87,0.25,3.74,1.01,5.46v0.4H280.49z M274.89,577.56c0.96,0.01,1.91-0.22,2.77-0.67
	c0.79-0.4,1.45-1.02,1.88-1.79v-4.36H277c-3.39,0-5.2,1.17-5.41,3.52l-0.02,0.4c-0.02,0.79,0.3,1.55,0.89,2.09
	C273.13,577.32,274,577.61,274.89,577.56L274.89,577.56z"/>
<path class="st0" d="M300.67,574l4.71-17.09h7.08l-8.55,25.36h-6.47l-8.55-25.36h7.08L300.67,574z"/>
<path class="st0" d="M329.78,582.27c-0.35-0.72-0.57-1.48-0.68-2.27c-1.62,1.82-3.96,2.82-6.4,2.74c-2.26,0.08-4.46-0.69-6.18-2.16
	c-1.59-1.35-2.49-3.35-2.45-5.44c-0.12-2.44,1-4.77,2.99-6.19c1.99-1.44,4.87-2.16,8.64-2.18h3.12v-1.45
	c0.05-1.02-0.27-2.02-0.9-2.81c-0.74-0.76-1.79-1.15-2.85-1.05c-0.96-0.06-1.92,0.23-2.68,0.82c-0.65,0.56-1.01,1.39-0.97,2.25
	h-6.77c0-1.47,0.48-2.9,1.36-4.08c0.99-1.31,2.32-2.33,3.84-2.94c1.77-0.73,3.67-1.1,5.58-1.07c2.68-0.14,5.33,0.69,7.44,2.36
	c1.88,1.67,2.89,4.11,2.75,6.62v10.99c-0.09,1.87,0.25,3.74,1.01,5.46v0.4H329.78z M324.18,577.56c0.96,0.01,1.91-0.22,2.77-0.67
	c0.79-0.4,1.45-1.02,1.88-1.79v-4.36h-2.53c-3.39,0-5.2,1.17-5.41,3.52l-0.02,0.4c-0.02,0.79,0.3,1.55,0.89,2.09
	C322.42,577.32,323.29,577.61,324.18,577.56L324.18,577.56z"/>
<path class="st0" d="M340.77,550.35c-0.03-0.94,0.34-1.85,1.02-2.51c1.61-1.31,3.93-1.31,5.54,0c1.38,1.4,1.37,3.65-0.01,5.04
	c-1.6,1.31-3.91,1.31-5.51,0C341.12,552.23,340.74,551.3,340.77,550.35z M347.97,582.27h-6.8v-25.36h6.8V582.27z"/>
<path class="st0" d="M360.7,582.27h-6.8v-36h6.8V582.27z"/>
<path class="st0" d="M380.97,582.27c-0.35-0.72-0.57-1.48-0.68-2.27c-1.62,1.82-3.96,2.82-6.4,2.74c-2.26,0.08-4.46-0.69-6.18-2.16
	c-1.59-1.35-2.49-3.35-2.45-5.44c-0.12-2.44,1-4.77,2.99-6.19c1.99-1.44,4.87-2.16,8.64-2.18h3.12v-1.45
	c0.05-1.02-0.27-2.02-0.9-2.81c-0.74-0.76-1.79-1.15-2.85-1.05c-0.96-0.06-1.92,0.23-2.68,0.82c-0.65,0.56-1.01,1.39-0.97,2.25
	h-6.77c0-1.47,0.48-2.9,1.36-4.08c0.99-1.31,2.32-2.33,3.84-2.94c1.77-0.73,3.67-1.1,5.58-1.07c2.68-0.14,5.33,0.69,7.44,2.36
	c1.88,1.67,2.89,4.11,2.75,6.62v10.99c-0.09,1.87,0.25,3.74,1.01,5.46v0.4H380.97z M375.37,577.56c0.96,0.01,1.91-0.22,2.77-0.67
	c0.79-0.4,1.45-1.02,1.88-1.79v-4.36h-2.53c-3.39,0-5.2,1.17-5.41,3.52l-0.02,0.4c-0.02,0.79,0.3,1.55,0.89,2.09
	C373.61,577.32,374.48,577.61,375.37,577.56L375.37,577.56z"/>
<path class="st0" d="M414.86,569.83c0,4.06-0.87,7.23-2.6,9.5c-1.71,2.26-4.43,3.54-7.27,3.41c-2.58,0.08-5.04-1.1-6.59-3.16
	l-0.3,2.7h-6.09v-36h6.77v12.91c1.52-1.81,3.8-2.82,6.16-2.74c2.84-0.12,5.55,1.15,7.28,3.41c1.76,2.27,2.64,5.47,2.64,9.6V569.83z
	 M408.09,569.33c0-2.56-0.41-4.43-1.22-5.61c-0.82-1.18-2.2-1.85-3.63-1.77c-1.9-0.16-3.68,0.91-4.45,2.65v10.01
	c0.78,1.75,2.59,2.83,4.5,2.67c2.03,0.12,3.85-1.25,4.31-3.23C407.98,572.51,408.15,570.92,408.09,569.33z"/>
<path class="st0" d="M426.18,582.27h-6.8v-36h6.8V582.27z"/>
<path class="st0" d="M443.43,582.74c-3.37,0.14-6.64-1.1-9.08-3.42c-2.39-2.42-3.66-5.72-3.5-9.12v-0.66
	c-0.04-2.36,0.46-4.7,1.48-6.83c0.91-1.92,2.36-3.54,4.18-4.64c1.87-1.1,4.01-1.67,6.18-1.63c3.08-0.16,6.07,1.04,8.19,3.28
	c1.99,2.19,2.99,5.29,2.99,9.3v2.77h-16.15c0.15,1.53,0.86,2.94,1.98,3.98c1.15,1.02,2.65,1.56,4.18,1.5
	c2.38,0.11,4.66-0.95,6.12-2.84l3.33,3.73c-1.05,1.47-2.48,2.63-4.13,3.36C447.39,582.35,445.42,582.77,443.43,582.74z
	 M442.66,561.9c-1.24-0.04-2.43,0.45-3.27,1.37c-0.92,1.11-1.48,2.47-1.61,3.91h9.42v-0.54c0.05-1.28-0.38-2.53-1.22-3.5
	C445.1,562.28,443.89,561.83,442.66,561.9z"/>
</svg>
